# xmcd
#
# Track frame offsets: 
#        182
#        18320
#        37050
#        56125
#        62800
#        78625
#        106692
#        121562
#        131212
#        142050
#        160562
#        174340
#
# Disc length: 2573 seconds
#
# Revision: 0
# Processed by: cddbd v1.5.1PL0 Copyright (c) Steve Scherf et al.
# Submitted via: ExactAudioCopy v0.95a3
#
DISCID=9e0a0b0c
DTITLE=Tomás Bretón - La Verbena de la Paloma
DYEAR=1958
DGENRE=Zarzuela
TTITLE0=Preludio
TTITLE1=Parlante y escena
TTITLE2=Canción de Julián
TTITLE3=Seguidillas
TTITLE4=Coplas de Don Hilarión
TTITLE5=Soledad
TTITLE6=Nocturno
TTITLE7=Escena de Chulapas y Don Hilarión
TTITLE8=Mazurka
TTITLE9=Dúo- Escena
TTITLE10=Quinteto
TTITLE11=Habanera - concertante
EXTD=
EXTT0=Preludio
EXTT1=Parlante y escena
EXTT2=Canción de Julián
EXTT3=
EXTT4=
EXTT5=
EXTT6=
EXTT7=
EXTT8=
EXTT9=
EXTT10=
EXTT11=
PLAYORDER=
